<?xml version="1.0" standalone="no"?>
<!DOCTYPE svg PUBLIC "-//W3C//DTD SVG 20010904//EN"
 "http://www.w3.org/TR/2001/REC-SVG-20010904/DTD/svg10.dtd">
<svg version="1.0" xmlns="http://www.w3.org/2000/svg"
 width="225.000000pt" height="225.000000pt" viewBox="0 0 225.000000 225.000000"
 preserveAspectRatio="xMidYMid meet">

<g transform="translate(0.000000,225.000000) scale(0.100000,-0.100000)"
fill="#000000" stroke="none">
<path d="M0 1125 l0 -1125 1125 0 1125 0 0 1125 0 1125 -1125 0 -1125 0 0
-1125z m364 229 c3 -9 6 -30 6 -48 0 -31 1 -31 41 -28 72 7 119 -37 119 -113
0 -69 -41 -114 -103 -115 -21 0 -47 5 -58 10 -13 8 -19 7 -19 0 0 -6 -12 -10
-27 -8 l-28 3 -3 145 c-2 127 -1 146 15 157 23 18 50 16 57 -3z m251 -144 l0
-155 -30 0 -30 0 -3 152 c-2 138 -1 152 15 156 47 13 48 11 48 -153z m610 147
c3 -7 -19 -77 -48 -157 -48 -131 -55 -145 -76 -145 -21 0 -27 9 -44 60 l-20
60 -22 -60 c-19 -49 -27 -60 -46 -60 -19 0 -28 13 -60 95 -47 119 -48 130 -8
130 31 0 32 -1 64 -85 7 -18 9 -16 21 15 22 55 30 65 51 68 17 2 24 -7 39 -47
9 -27 21 -48 24 -46 4 3 20 39 35 82 15 43 35 84 43 91 20 16 41 15 47 -1z
m85 -115 c14 -28 27 -52 30 -52 3 0 14 22 25 50 21 53 41 69 62 47 21 -21 94
-220 84 -230 -5 -5 -21 -7 -36 -5 -24 3 -31 11 -47 57 -10 30 -20 56 -22 58
-2 2 -11 -18 -21 -46 -30 -91 -58 -90 -94 4 l-18 48 -13 -39 c-19 -60 -38 -84
-65 -84 -13 0 -26 4 -30 9 -3 6 13 58 36 118 54 144 68 152 109 65z m-464 4
c29 -29 34 -41 34 -81 0 -40 -5 -52 -34 -81 -30 -30 -40 -34 -86 -34 -46 0
-56 4 -86 34 -29 29 -34 41 -34 81 0 40 5 52 34 81 30 30 40 34 86 34 46 0 56
-4 86 -34z m860 9 c23 -23 25 -31 22 -112 l-3 -88 -50 -1 c-27 -1 -54 -3 -60
-4 -77 -18 -126 69 -70 125 18 19 35 25 70 25 27 0 45 5 45 11 0 8 -17 10 -54
6 -37 -4 -58 -1 -65 7 -22 26 25 55 92 56 38 0 53 -5 73 -25z m126 -5 c12 -16
24 -30 28 -30 3 0 14 14 23 30 14 22 26 30 47 30 43 0 45 -15 6 -66 -38 -49
-38 -49 6 -106 33 -42 30 -58 -12 -58 -21 0 -35 9 -51 32 l-23 31 -26 -31
c-17 -21 -35 -32 -53 -32 -41 0 -42 17 -3 65 20 24 36 46 36 50 0 3 -16 27
-35 52 -39 51 -38 63 5 63 21 0 36 -9 52 -30z m-1102 -310 c0 -5 -4 -10 -10
-10 -5 0 -10 -13 -10 -30 0 -16 -4 -30 -10 -30 -5 0 -10 14 -10 30 0 20 -5 30
-15 30 -8 0 -15 5 -15 10 0 6 16 10 35 10 19 0 35 -4 35 -10z m34 -24 c-6 -17
12 -40 25 -32 6 4 11 20 11 37 0 16 5 29 10 29 16 0 12 -57 -6 -74 -8 -9 -19
-16 -24 -16 -28 0 -53 64 -33 83 9 9 22 -13 17 -27z m143 12 l10 -23 12 23
c18 34 31 26 31 -18 0 -22 -4 -40 -10 -40 -5 0 -10 10 -10 23 0 15 -3 18 -8 9
-5 -8 -16 -10 -27 -6 -14 6 -17 4 -12 -9 4 -11 1 -17 -8 -17 -10 0 -15 11 -15
33 0 51 20 64 37 25z m123 18 c0 -2 7 -20 15 -39 l15 -36 -35 6 c-24 4 -35 2
-35 -6 0 -7 -4 -9 -10 -6 -12 7 25 85 40 85 6 0 10 -2 10 -4z m54 -12 c6 -15
8 -15 26 1 17 15 20 16 20 3 0 -9 -7 -21 -15 -28 -8 -7 -12 -16 -9 -21 3 -5 2
-14 -2 -20 -6 -11 -44 52 -44 73 0 14 18 8 24 -8z m134 4 c33 -33 -16 -91 -57
-68 -39 20 -21 80 24 80 12 0 26 -5 33 -12z m90 -1 c6 -7 7 -18 3 -26 -5 -7
-6 -23 -3 -35 5 -20 5 -20 -15 -3 -19 16 -21 16 -27 2 -3 -9 -10 -13 -16 -10
-11 7 -14 68 -3 78 11 12 50 8 61 -6z m42 -33 c0 -27 -4 -43 -10 -39 -17 11
-11 85 7 85 2 0 3 -21 3 -46z m80 36 c0 -5 -10 -10 -22 -10 -22 -1 -22 -2 4
-16 39 -21 15 -64 -27 -48 -23 9 -18 26 5 19 11 -4 20 -2 20 4 0 6 -6 11 -14
11 -19 0 -29 17 -22 35 6 17 56 21 56 5z m80 0 c0 -5 -4 -10 -10 -10 -5 0 -10
-13 -10 -30 0 -16 -4 -30 -10 -30 -5 0 -10 14 -10 30 0 17 -4 30 -10 30 -5 0
-10 5 -10 10 0 6 14 10 30 10 17 0 30 -4 30 -10z m60 6 c0 -2 7 -20 15 -40
l15 -36 -31 7 c-21 4 -34 1 -40 -8 -16 -25 -10 19 6 51 13 25 35 41 35 26z"/>
<path d="M377 1202 c-22 -24 -21 -55 1 -75 35 -32 82 -10 82 38 0 49 -52 71
-83 37z"/>
<path d="M728 1209 c-25 -14 -24 -75 1 -89 27 -14 47 -13 65 6 21 21 20 57 -2
77 -21 19 -39 21 -64 6z"/>
<path d="M1594 1135 c-8 -21 4 -35 31 -35 30 0 53 35 29 44 -27 10 -54 7 -60
-9z"/>
<path d="M1010 910 c0 -5 5 -10 11 -10 5 0 7 5 4 10 -3 6 -8 10 -11 10 -2 0
-4 -4 -4 -10z"/>
<path d="M1163 914 c-3 -8 -1 -20 6 -27 14 -14 47 15 37 32 -10 16 -36 13 -43
-5z"/>
<path d="M1270 920 c0 -5 5 -10 10 -10 6 0 10 5 10 10 0 6 -4 10 -10 10 -5 0
-10 -4 -10 -10z"/>
<path d="M1550 910 c0 -5 5 -10 11 -10 5 0 7 5 4 10 -3 6 -8 10 -11 10 -2 0
-4 -4 -4 -10z"/>
</g>
</svg>
